<svg xmlns="http://www.w3.org/2000/svg" width="1200" height="630" viewBox="0 0 1200 630">
  <defs>
    <linearGradient id="bgGrad" x1="0%" y1="0%" x2="100%" y2="100%">
      <stop offset="0%" style="stop-color:#059669;stop-opacity:1" />
      <stop offset="50%" style="stop-color:#047857;stop-opacity:1" />
      <stop offset="100%" style="stop-color:#065f46;stop-opacity:1" />
    </linearGradient>
  </defs>
  
  <!-- Background -->
  <rect width="1200" height="630" fill="url(#bgGrad)"/>
  
  <!-- Decorative circles -->
  <circle cx="200" cy="150" r="80" fill="white" opacity="0.1"/>
  <circle cx="1000" cy="480" r="100" fill="white" opacity="0.08"/>
  
  <!-- Trending Up Icon (Large) -->
  <g transform="translate(150, 180)">
    <!-- Chart base line -->
    <line x1="0" y1="80" x2="200" y2="80" stroke="white" stroke-width="6" stroke-linecap="round" opacity="0.8"/>
    <!-- Upward trend line -->
    <polyline points="20,60 60,40 100,50 140,20 180,10" 
              fill="none" 
              stroke="white" 
              stroke-width="8" 
              stroke-linecap="round" 
              stroke-linejoin="round"/>
    <!-- Data points -->
    <circle cx="20" cy="60" r="5" fill="white"/>
    <circle cx="60" cy="40" r="5" fill="white"/>
    <circle cx="100" cy="50" r="5" fill="white"/>
    <circle cx="140" cy="20" r="5" fill="white"/>
    <circle cx="180" cy="10" r="5" fill="white"/>
    <!-- Arrow -->
    <path d="M165 15 L180 10 L175 20" fill="white" stroke="white" stroke-width="3" stroke-linecap="round"/>
  </g>
  
  <!-- Main Text -->
  <text x="600" y="280" font-family="Arial, sans-serif" font-size="84" font-weight="bold" fill="white" text-anchor="middle" letter-spacing="-2">GreenLoop</text>
  <text x="600" y="350" font-family="Arial, sans-serif" font-size="42" fill="white" opacity="0.95" text-anchor="middle" font-weight="600">Automate Your Restaurant's</text>
  <text x="600" y="400" font-family="Arial, sans-serif" font-size="42" fill="white" opacity="0.95" text-anchor="middle" font-weight="600">Repeat Revenue</text>
  <text x="600" y="480" font-family="Arial, sans-serif" font-size="28" fill="white" opacity="0.85" text-anchor="middle">Calculate your lost revenue. Fix it forever.</text>
  
  <!-- Badge -->
  <rect x="450" y="510" width="300" height="50" rx="25" fill="white" opacity="0.2"/>
  <text x="600" y="540" font-family="Arial, sans-serif" font-size="20" fill="white" text-anchor="middle" font-weight="600">The Restaurant Repeat Revenue Audit™</text>
</svg>
